<mxfile host="app.diagrams.net" agent="Mozilla/5.0 (Macintosh; Intel Mac OS X 10_15_7) AppleWebKit/605.1.15 (KHTML, like Gecko) Version/18.1.1 Safari/605.1.15" version="26.0.15">
  <diagram name="Page-1" id="q7WVirhs-9pqEs8OgyQB">
    <mxGraphModel dx="984" dy="666" grid="1" gridSize="10" guides="1" tooltips="1" connect="1" arrows="1" fold="1" page="1" pageScale="1" pageWidth="827" pageHeight="1169" math="0" shadow="0">
      <root>
        <mxCell id="0" />
        <mxCell id="1" parent="0" />
        <mxCell id="JqOxX97n6MpwX1B1sSxP-1" value="are creating a database for an online course&#xa;provider. We need to create a number of tables to store the&#xa;information required:&#xa;● A course table for the courses offered&#xa;● An instructor table to hold information about instructors&#xa;● A students table to hold information about students&#xa;● An enrolments table to keep the relationship between&#xa;students and courses" style="rounded=0;whiteSpace=wrap;html=1;" vertex="1" parent="1">
          <mxGeometry x="40" y="30" width="430" height="180" as="geometry" />
        </mxCell>
        <mxCell id="JqOxX97n6MpwX1B1sSxP-3" value="COURSES&lt;div&gt;course_id&lt;/div&gt;&lt;div&gt;course_name&lt;/div&gt;&lt;div&gt;description&lt;/div&gt;" style="whiteSpace=wrap;html=1;aspect=fixed;fontStyle=1" vertex="1" parent="1">
          <mxGeometry x="80" y="250" width="110" height="110" as="geometry" />
        </mxCell>
        <mxCell id="JqOxX97n6MpwX1B1sSxP-4" value="INSTRUCTORS&lt;div&gt;instructor_id&lt;/div&gt;&lt;div&gt;instructor_name&lt;/div&gt;&lt;div&gt;instructor_email&lt;/div&gt;" style="whiteSpace=wrap;html=1;aspect=fixed;fontStyle=1" vertex="1" parent="1">
          <mxGeometry x="260" y="250" width="110" height="110" as="geometry" />
        </mxCell>
        <mxCell id="JqOxX97n6MpwX1B1sSxP-6" value="STUDENTS&lt;br&gt;&lt;div&gt;student_id&lt;/div&gt;&lt;div&gt;student_name&lt;/div&gt;&lt;div&gt;student_email&lt;/div&gt;" style="whiteSpace=wrap;html=1;aspect=fixed;fontStyle=1" vertex="1" parent="1">
          <mxGeometry x="430" y="250" width="110" height="110" as="geometry" />
        </mxCell>
        <mxCell id="JqOxX97n6MpwX1B1sSxP-7" value="ENROLMENTS&lt;div&gt;enrolment_id&lt;br&gt;&lt;div&gt;student_id&lt;/div&gt;&lt;div&gt;course_id&lt;/div&gt;&lt;/div&gt;" style="whiteSpace=wrap;html=1;aspect=fixed;fontStyle=1" vertex="1" parent="1">
          <mxGeometry x="260" y="400" width="110" height="110" as="geometry" />
        </mxCell>
        <mxCell id="JqOxX97n6MpwX1B1sSxP-8" value="" style="endArrow=none;html=1;rounded=0;entryX=0.636;entryY=1.027;entryDx=0;entryDy=0;entryPerimeter=0;" edge="1" parent="1" target="JqOxX97n6MpwX1B1sSxP-6">
          <mxGeometry width="50" height="50" relative="1" as="geometry">
            <mxPoint x="380" y="450" as="sourcePoint" />
            <mxPoint x="430" y="400" as="targetPoint" />
            <Array as="points">
              <mxPoint x="500" y="450" />
            </Array>
          </mxGeometry>
        </mxCell>
        <mxCell id="JqOxX97n6MpwX1B1sSxP-11" value="" style="endArrow=none;html=1;rounded=0;" edge="1" parent="1">
          <mxGeometry width="50" height="50" relative="1" as="geometry">
            <mxPoint x="250" y="430" as="sourcePoint" />
            <mxPoint x="180" y="370" as="targetPoint" />
            <Array as="points">
              <mxPoint x="180" y="430" />
            </Array>
          </mxGeometry>
        </mxCell>
        <mxCell id="JqOxX97n6MpwX1B1sSxP-17" value="" style="endArrow=none;html=1;rounded=0;entryX=0;entryY=0.75;entryDx=0;entryDy=0;exitX=1;exitY=0.75;exitDx=0;exitDy=0;" edge="1" parent="1" source="JqOxX97n6MpwX1B1sSxP-3" target="JqOxX97n6MpwX1B1sSxP-4">
          <mxGeometry width="50" height="50" relative="1" as="geometry">
            <mxPoint x="200" y="340" as="sourcePoint" />
            <mxPoint x="220" y="300" as="targetPoint" />
          </mxGeometry>
        </mxCell>
      </root>
    </mxGraphModel>
  </diagram>
</mxfile>
